HIERARCHY
ROOT SpineBase
{
  OFFSET 0.000000 0.000000 0.000000
  CHANNELS 6 Xposition Yposition Zposition Zrotation Xrotation Yrotation
  JOINT SpineMid
  {
    OFFSET 0.000000 29.012557 0.000000
    CHANNELS 3 Zrotation Xrotation Yrotation
    JOINT SpineShoulder
    {
      OFFSET -0.006510 21.541343 -0.696158
      CHANNELS 3 Zrotation Xrotation Yrotation
      JOINT Neck
      {
        OFFSET -0.013512 7.124992 -0.528681
        CHANNELS 3 Zrotation Xrotation Yrotation
        JOINT Head
        {
          OFFSET -2.526415 12.076041 -0.682557
          CHANNELS 3 Zrotation Xrotation Yrotation
          End Site
          {
            OFFSET 0 0 0
          }
        }
      }
      JOINT ShoulderLeft
      {
        OFFSET -16.663490 -2.553492 6.121606
        CHANNELS 3 Zrotation Xrotation Yrotation
        JOINT ElbowLeft
        {
          OFFSET -2.692420 -24.779739 4.301574
          CHANNELS 3 Zrotation Xrotation Yrotation
          JOINT WristLeft
          {
            OFFSET -4.263810 -19.527213 -2.566992
            CHANNELS 3 Zrotation Xrotation Yrotation
            JOINT HandLeft
            {
              OFFSET 0.231133 -6.541847 -2.195462
              CHANNELS 3 Zrotation Xrotation Yrotation
              JOINT HandTipLeft
              {
                OFFSET -0.942277 -6.234098 -1.873591
                CHANNELS 3 Zrotation Xrotation Yrotation
                End Site
                {
                  OFFSET 0 0 0
                }
              }
              JOINT ThumbLeft
              {
                OFFSET 3.578421 -2.107928 -2.836271
                CHANNELS 3 Zrotation Xrotation Yrotation
                End Site
                {
                  OFFSET 0 0 0
                }
              }
            }
          }
        }
      }
      JOINT ShoulderRight
      {
        OFFSET 14.558351 -2.572309 -6.572982
        CHANNELS 3 Zrotation Xrotation Yrotation
        JOINT ElbowRight
        {
          OFFSET 5.884771 -24.402578 -2.926184
          CHANNELS 3 Zrotation Xrotation Yrotation
          JOINT WristRight
          {
            OFFSET -0.602707 -18.959420 -5.108754
            CHANNELS 3 Zrotation Xrotation Yrotation
            JOINT HandRight
            {
              OFFSET -2.431356 -8.485499 -1.319099
              CHANNELS 3 Zrotation Xrotation Yrotation
              JOINT HandTipRight
              {
                OFFSET -0.950212 -6.295494 -2.786419
                CHANNELS 3 Zrotation Xrotation Yrotation
                End Site
                {
                  OFFSET 0 0 0
                }
              }
              JOINT ThumbRight
              {
                OFFSET -3.785676 -1.224804 -1.970911
                CHANNELS 3 Zrotation Xrotation Yrotation
                End Site
                {
                  OFFSET 0 0 0
                }
              }
            }
          }
        }
      }
    }
  }
  JOINT HipLeft
  {
    OFFSET -5.876103 0.378740 -1.211342
    CHANNELS 3 Zrotation Xrotation Yrotation
    JOINT KneeLeft
    {
      OFFSET -7.437997 -31.012127 6.857447
      CHANNELS 3 Zrotation Xrotation Yrotation
      JOINT AnkleLeft
      {
        OFFSET -2.535752 -36.020449 8.514262
        CHANNELS 3 Zrotation Xrotation Yrotation
        JOINT FootLeft
        {
          OFFSET -3.465897 -3.712907 -13.096692
          CHANNELS 3 Zrotation Xrotation Yrotation
          End Site
          {
            OFFSET 0 0 0
          }
        }
      }
    }
  }
  JOINT HipRight
  {
    OFFSET 5.492048 0.910535 -5.326605
    CHANNELS 3 Zrotation Xrotation Yrotation
    JOINT KneeRight
    {
      OFFSET 5.067689 -33.719554 4.452881
      CHANNELS 3 Zrotation Xrotation Yrotation
      JOINT AnkleRight
      {
        OFFSET 0.938448 -31.705525 6.808107
        CHANNELS 3 Zrotation Xrotation Yrotation
        JOINT FootRight
        {
          OFFSET -2.271553 -4.782474 -11.268575
          CHANNELS 3 Zrotation Xrotation Yrotation
          End Site
          {
            OFFSET 0 0 0
          }
        }
      }
    }
  }
}
MOTION
Frames: 8
Frame Time: 0.033333
22.278681 73.180283 365.643483 -0.000000 0.000000 19.900220 0.000000 0.000000 -19.900220 -0.000000 0.000000 0.000000 -0.000000 0.000000 0.000000 0.000000 0.000000 0.000000 -0.000000 0.000000 0.000000 -0.000000 0.000000 0.000000 -0.000000 0.000000 0.000000 -0.000000 0.000000 0.000000 0.000000 0.000000 0.000000 0.000000 0.000000 0.000000 -0.000000 0.000000 0.000000 -0.000000 0.000000 0.000000 -0.000000 0.000000 0.000000 -0.000000 0.000000 0.000000 0.000000 0.000000 0.000000 0.000000 0.000000 0.000000 0.000000 0.000000 -19.900220 -0.000000 0.000000 0.000000 -0.000000 0.000000 0.000000 0.000000 0.000000 0.000000 0.000000 0.000000 -19.900220 -0.000000 0.000000 0.000000 -0.000000 0.000000 0.000000 0.000000 0.000000 0.000000
22.273391 73.172814 365.666037 -0.025556 0.018615 19.905214 0.017692 -0.026204 -19.905206 -0.000000 0.000000 0.000000 -0.000000 0.000000 0.000000 0.000000 0.000000 0.000000 -0.000000 0.000000 0.000000 -0.000000 0.000000 0.000000 -0.000000 0.000000 0.000000 -0.000000 0.000000 0.000000 0.000000 0.000000 0.000000 0.000000 0.000000 0.000000 -0.000000 0.000000 0.000000 -0.000000 0.000000 0.000000 -0.000000 0.000000 0.000000 1.399758 0.027254 -0.625098 0.000000 0.000000 0.000000 0.000000 0.000000 0.000000 0.017692 -0.026204 -19.905206 -0.000000 0.000000 0.000000 0.121822 -0.920732 0.443783 0.000000 0.000000 0.000000 1.046559 0.707878 -19.660132 -0.722045 -1.037352 -0.257731 -0.090189 -3.189318 1.845444 0.000000 0.000000 0.000000
22.269377 73.166944 365.685295 -0.049537 0.032655 19.911545 0.035454 -0.047573 -19.911516 -0.000000 0.000000 0.000000 -0.000000 0.000000 0.000000 0.000000 0.000000 0.000000 -0.000000 0.000000 0.000000 -0.000000 0.000000 0.000000 0.585903 -0.829831 -0.222209 0.542959 0.822603 -0.124923 0.000000 0.000000 0.000000 0.000000 0.000000 0.000000 -0.000000 0.000000 0.000000 -0.000000 0.000000 0.000000 0.184506 -1.450651 0.390279 2.524136 1.308774 -1.631663 0.000000 0.000000 0.000000 0.000000 0.000000 0.000000 0.035454 -0.047573 -19.911516 -0.000000 0.000000 0.000000 0.246239 -1.821001 0.886817 0.000000 0.000000 0.000000 1.998879 1.352551 -19.454459 -1.345224 -3.124888 -0.524605 -0.077777 -4.901441 3.386338 0.000000 0.000000 0.000000
22.266639 73.162675 365.701258 -0.071941 0.042118 19.919210 0.053288 -0.064109 -19.919154 -0.000000 0.000000 0.000000 -0.000000 0.000000 0.000000 0.000000 0.000000 0.000000 -0.000000 0.000000 0.000000 -0.000000 0.000000 0.000000 0.780661 -1.066162 -0.293247 0.932169 0.957172 -0.222825 0.000000 0.000000 0.000000 0.000000 0.000000 0.000000 -0.000000 0.000000 0.000000 -0.000000 0.000000 0.000000 0.450873 -2.109043 0.544752 3.454530 1.621872 -2.320114 0.000000 0.000000 0.000000 0.000000 0.000000 0.000000 -0.377651 0.685965 -20.196752 0.663429 -0.555146 0.283151 0.372118 -2.695546 1.326936 0.000000 0.000000 0.000000 2.806755 1.894953 -19.291099 -1.946774 -4.257734 -0.757322 0.124760 -6.978625 4.519550 0.000000 0.000000 0.000000
22.265177 73.160007 365.713925 -0.092769 0.047004 19.928203 0.071194 -0.075809 -19.928118 -0.000000 0.000000 0.000000 -0.000000 0.000000 0.000000 0.000000 0.000000 0.000000 -0.000000 0.000000 0.000000 -0.000000 0.000000 0.000000 0.900398 -1.166021 -0.335269 1.404386 0.888892 -0.341384 0.000000 0.000000 0.000000 0.000000 0.000000 0.000000 -0.000000 0.000000 0.000000 -0.000000 0.000000 0.000000 0.834361 -2.681421 0.662054 4.147427 1.674206 -2.886216 0.000000 0.000000 0.000000 0.000000 0.000000 0.000000 -0.474104 0.776057 -20.249693 0.806476 -0.610432 0.329204 0.498171 -3.539043 1.761826 0.000000 0.000000 0.000000 3.423123 2.298412 -19.175910 -2.444789 -5.081753 -0.948141 0.430979 -8.640410 5.199428 0.000000 0.000000 0.000000
22.264992 73.158939 365.723297 -0.112020 0.047308 19.938516 0.089173 -0.082673 -19.938405 -0.000000 0.000000 0.000000 -0.000000 0.000000 0.000000 0.000000 0.000000 0.000000 -0.000000 0.000000 0.000000 0.463486 -0.760685 0.108438 0.474380 -0.358431 -0.461138 1.961355 0.606953 -0.476820 0.000000 0.000000 0.000000 0.000000 0.000000 0.000000 -0.000000 0.000000 0.000000 -0.000000 0.000000 0.000000 1.324309 -3.141212 0.736281 4.604963 1.446208 -3.306669 0.000000 0.000000 0.000000 0.000000 0.000000 0.000000 -0.553522 0.789373 -20.277603 0.905132 -0.595200 0.347863 0.622971 -4.346173 2.189042 0.000000 0.000000 0.000000 3.810672 2.534109 -19.112477 -2.807719 -5.576625 -1.081948 0.804742 -9.806664 5.381567 0.000000 0.000000 0.000000
22.275808 73.163893 365.732332 -0.117330 0.039633 19.947753 0.096769 -0.077284 -19.947647 -0.000000 0.000000 0.000000 -0.000000 0.000000 0.000000 0.000000 0.000000 0.000000 -0.000000 0.000000 0.000000 0.514017 -0.947532 0.143876 0.208073 -0.584562 -0.435874 2.920114 -0.216410 -0.570581 0.000000 0.000000 0.000000 0.000000 0.000000 0.000000 -0.000000 0.000000 0.000000 -0.000000 0.000000 0.000000 2.201743 -3.360080 0.692278 4.718950 -0.629016 -3.268037 0.000000 0.000000 0.000000 0.000000 0.000000 0.000000 -0.777945 0.783420 -20.310991 1.119130 -0.503463 0.373652 0.924311 -6.074313 3.059103 0.000000 0.000000 0.000000 4.089089 2.599602 -19.076743 -3.172505 -5.791207 -1.185558 0.143755 -6.657883 5.364951 0.000000 0.000000 0.000000
22.276166 73.170549 365.733814 -0.135556 0.026263 19.959880 0.118449 -0.070959 -19.959776 -0.000000 0.000000 0.000000 -0.000000 0.000000 0.000000 0.000000 0.000000 0.000000 -0.000000 0.000000 0.000000 0.512804 -1.041535 0.165035 -0.129239 -0.293304 -0.335052 3.701372 -2.576013 -0.417076 0.000000 0.000000 0.000000 0.000000 0.000000 0.000000 -0.000000 0.000000 0.000000 -0.000000 0.000000 0.000000 2.605742 -3.351196 0.638652 4.889712 0.088168 -3.614495 0.000000 0.000000 0.000000 0.000000 0.000000 0.000000 -0.765749 0.656949 -20.285184 1.081739 -0.376140 0.333480 1.125891 -7.168180 3.634407 0.000000 0.000000 0.000000 4.835132 3.142694 -18.948264 -3.589735 -6.548331 -1.373506 -1.163198 -3.884449 6.630171 0.000000 0.000000 0.000000
